<?xml version="1.0" encoding="UTF-8" standalone="no"?>
<!-- Generated simplified SVG of architecture diagram -->
<svg xmlns="http://www.w3.org/2000/svg" width="1000" height="480" viewBox="0 0 1000 480">
  <rect x="30" y="30" width="240" height="80" rx="8" fill="#dae8fc" stroke="#6c8ebf" />
  <text x="150" y="70" font-family="Arial" font-size="14" text-anchor="middle" fill="#1b283a">TransactionController (REST API)</text>

  <rect x="300" y="30" width="300" height="90" rx="8" fill="#d5e8d4" stroke="#82b366" />
  <text x="450" y="55" font-family="Arial" font-size="13" text-anchor="middle" fill="#1b283a">Use Cases: Create / Get</text>
  <text x="450" y="75" font-family="Arial" font-size="12" text-anchor="middle" fill="#1b283a">CreateTransactionUseCase, GetTransactionUseCase</text>

  <rect x="30" y="150" width="240" height="110" rx="8" fill="#e1d5e7" stroke="#9673a6" />
  <text x="150" y="170" font-family="Arial" font-size="13" text-anchor="middle" fill="#1b283a">Payment Providers</text>
  <text x="150" y="190" font-family="Arial" font-size="12" text-anchor="middle" fill="#1b283a">PayuAdapter, StripeAdapter</text>

  <rect x="300" y="150" width="300" height="110" rx="8" fill="#fff2cc" stroke="#d6b656" />
  <text x="450" y="170" font-family="Arial" font-size="13" text-anchor="middle" fill="#1b283a">Domain</text>
  <text x="450" y="190" font-family="Arial" font-size="12" text-anchor="middle" fill="#1b283a">Transaction, Customer, TransactionStatus</text>

  <rect x="640" y="150" width="300" height="110" rx="8" fill="#f8cecc" stroke="#b85450" />
  <text x="790" y="170" font-family="Arial" font-size="13" text-anchor="middle" fill="#1b283a">Persistence (JPA)</text>
  <text x="790" y="190" font-family="Arial" font-size="12" text-anchor="middle" fill="#1b283a">TransactionEntity, CustomerEntity</text>

  <rect x="640" y="30" width="240" height="80" rx="8" fill="#d0d0d0" stroke="#808080" />
  <text x="760" y="65" font-family="Arial" font-size="13" text-anchor="middle" fill="#1b283a">Events (Kafka)</text>
  <text x="760" y="80" font-family="Arial" font-size="11" text-anchor="middle" fill="#1b283a">TransactionCreated/Completed/Failed</text>

  <rect x="300" y="280" width="300" height="60" rx="8" fill="#f5f5dc" stroke="#c0a000" />
  <text x="450" y="315" font-family="Arial" font-size="13" text-anchor="middle" fill="#1b283a">Metrics (Micrometer)</text>
  <text x="450" y="333" font-family="Arial" font-size="11" text-anchor="middle" fill="#1b283a">transactions_total, processing_time</text>

  <!-- arrows -->
  <defs>
    <marker id="arrow" markerWidth="10" markerHeight="10" refX="10" refY="5" orient="auto">
      <path d="M0,0 L10,5 L0,10 z" fill="#333" />
    </marker>
  </defs>

  <line x1="270" y1="70" x2="300" y2="70" stroke="#6c8ebf" stroke-width="2" marker-end="url(#arrow)" />
  <line x1="600" y1="100" x2="640" y2="100" stroke="#d6b656" stroke-width="2" marker-end="url(#arrow)" />
  <line x1="350" y1="120" x2="350" y2="150" stroke="#82b366" stroke-width="2" marker-end="url(#arrow)" />
  <line x1="270" y1="200" x2="300" y2="200" stroke="#9673a6" stroke-width="2" marker-end="url(#arrow)" />
  <line x1="560" y1="200" x2="640" y2="200" stroke="#808080" stroke-width="2" marker-end="url(#arrow)" />
  <line x1="560" y1="260" x2="600" y2="300" stroke="#c0a000" stroke-width="2" marker-end="url(#arrow)" />

  <!-- footer note -->
  <text x="500" y="460" font-family="Arial" font-size="12" text-anchor="middle" fill="#333">Transaction Orchestrator — Hexagonal Architecture</text>
</svg>
